<?xml version="1.0" encoding="utf-8"?>
<!-- Generator: Adobe Illustrator 18.0.0, SVG Export Plug-In . SVG Version: 6.00 Build 0)  -->
<!DOCTYPE svg PUBLIC "-//W3C//DTD SVG 1.1//EN" "http://www.w3.org/Graphics/SVG/1.1/DTD/svg11.dtd">
<svg version="1.1" xmlns="http://www.w3.org/2000/svg" xmlns:xlink="http://www.w3.org/1999/xlink" x="0px" y="0px" width="800px"
	 height="400px" viewBox="0 0 800 400" style="enable-background:new 0 0 800 400;" xml:space="preserve">
<style type="text/css">
	.st0{fill:none;stroke:#000;stroke-width:4;}
	.st1{font-family:Liberation Sans,Arial;}
	.st2{font-size:72px;}
</style>
<g id="lines">
	<polyline class="st0" points="195,145.8 163.4,197.9 209.4,249.7 	"/>
	<line class="st0" x1="85.7" y1="199.5" x2="170.7" y2="185.9"/>
	<line class="st0" x1="87.9" y1="220.6" x2="171.9" y2="207.4"/>
	<polyline class="st0" points="263.7,101.7 341,120.3 353.7,238.3 415,273.7 	"/>
	<line class="st0" x1="287" y1="267.7" x2="353.7" y2="238.3"/>
	<line class="st0" x1="387" y1="63.7" x2="328.1" y2="117.2"/>
	<line class="st0" x1="401" y1="79" x2="342" y2="132.9"/>
	<polyline class="st0" points="497.7,273.7 559.7,238.3 621.7,273.7 	"/>
	<line class="st0" x1="547.7" y1="166.3" x2="547.7" y2="245.2"/>
	<line class="st0" x1="571.8" y1="166.3" x2="571.7" y2="245.2"/>
</g>
<g id="text">
	<text transform="matrix(1 0 0 1  17 240)" class="st1 st2">O</text>
	<text transform="matrix(1 0 0 1 398  68)" class="st1 st2">O</text>
	<text transform="matrix(1 0 0 1 139 128)" class="st1 st2">HN</text>
	<text transform="matrix(1 0 0 1 219 383)" class="st1 st2">H</text>
	<text transform="matrix(1 0 0 1 219 311)" class="st1 st2">N</text>
	<text transform="matrix(1 0 0 1 430 383)" class="st1 st2">H</text>
	<text transform="matrix(1 0 0 1 430 311)" class="st1 st2">N</text>
	<text transform="matrix(1 0 0 1 635 321)" class="st1 st2">NH</text>
	<text transform="matrix(0.583 0 0 0.583 739 340)" class="st1 st2">2</text>
	<text transform="matrix(1 0 0 1 531 150)" class="st1 st2">O</text>
</g>
</svg>
